<svg data-v-423bf9ae="" xmlns="http://www.w3.org/2000/svg" viewBox="0 0 184.9490920476379 60" class="font"><!----><!----><!----><g data-v-423bf9ae="" id="d8e26637-996b-4194-a688-641a3e1de804" fill="white" transform="matrix(6.109979629516602,0,0,6.109979629516602,0.000005248646630207077,-11.670059204101562)"><path d="M0.15 9.38L0.15 1.98L2.32 1.98L2.32 1.98Q2.69 3.29 3.80 7.23L3.80 7.23L4.66 7.23L4.66 7.23Q4.70 7.23 4.94 6.30L4.94 6.30L4.94 6.30Q5.48 4.44 6.16 1.98L6.16 1.98L8.17 1.98L8.17 8.31L8.28 8.31L8.28 9.46L7.67 9.46L7.67 9.67L8.28 9.67L8.28 11.73L6.57 11.73L6.57 10.97L6.78 10.97L6.78 8.63L6.42 8.63L6.42 7.46L6.21 7.46L6.19 7.53L6.01 7.53L6.01 9.19L5.41 9.19L5.41 9.97L4.91 9.97L4.91 11.29L3.71 11.29L3.71 10.45L2.97 10.45L2.97 9.30L2.52 9.30L2.52 8.09L2.27 8.09L2.27 8.09Q2.26 8.00 2.11 7.46L2.11 7.46L3.83 7.46L3.79 7.23L2.06 7.23L2.11 7.46L1.88 7.46L1.88 8.98L1.99 8.98L1.99 10.64L1.57 10.64L1.57 10.94L1.99 10.94L1.99 11.38L0.44 11.38L0.44 9.38L0.15 9.38ZM1.88 6.54L1.86 6.54L1.86 6.66L1.86 6.66Q1.86 6.81 1.88 7.23L1.88 7.23L2.04 7.23L2.04 7.23Q1.88 6.58 1.88 6.54L1.88 6.54ZM6.44 6.56L6.42 6.56L6.28 7.23L6.42 7.23L6.42 7.23Q6.44 6.82 6.44 6.62L6.44 6.62L6.44 6.56ZM1.86 7.23L1.32 7.23L1.32 7.46L1.86 7.46L1.86 7.23ZM6.25 7.23L4.69 7.23L4.64 7.46L6.19 7.46L6.19 7.46Q6.25 7.29 6.25 7.23L6.25 7.23ZM7.62 7.23L6.44 7.23L6.44 7.46L7.62 7.46L7.62 7.23ZM4.61 7.46L3.87 7.46L3.87 7.46Q3.98 7.99 4.02 7.99L4.02 7.99L4.22 7.99L4.22 8.87L4.53 8.87L4.53 7.51L4.61 7.51L4.61 7.46ZM8.28 9.67L8.28 9.46L9.27 9.46L9.27 9.67L8.28 9.67ZM0 11.61L0 11.46L1.74 11.46L1.74 11.61L0 11.61ZM9.06 8.85L9.06 1.91L11.01 1.91L11.01 5.94L10.63 5.94L10.63 10.10L13.54 10.10L13.54 10.97L12.96 10.97L12.96 11.17L13.54 11.17L13.54 11.73L11.66 11.73L11.66 11.58L9.08 11.58L9.08 11.58Q9.06 11.42 9.06 11.33L9.06 11.33L9.06 9.14L9.56 9.14L9.56 8.85L9.06 8.85ZM13.54 11.17L13.54 10.97L14.25 10.97L14.25 11.17L13.54 11.17ZM14.83 1.93L14.83 1.93L16.68 1.93L16.68 1.93Q16.71 1.94 16.71 1.97L16.71 1.97L16.71 6.73L16.71 6.73Q16.71 6.76 16.68 6.76L16.68 6.76L16.46 6.76L16.46 11.70L16.46 11.70Q16.46 11.73 16.43 11.73L16.43 11.73L14.83 11.73L14.83 11.73Q14.80 11.73 14.80 11.70L14.80 11.70L14.80 6.64L14.31 6.64L14.31 6.64Q14.27 6.64 14.27 6.61L14.27 6.61L14.27 6.40L14.27 6.40Q14.28 6.36 14.31 6.36L14.31 6.36L14.80 6.36L14.80 1.97L14.80 1.97Q14.81 1.93 14.83 1.93ZM15.76 6.36L14.81 6.36L14.81 6.64L15.76 6.64L15.76 6.36ZM17.29 1.96L17.29 1.96L19.28 1.96L19.28 1.96Q19.33 1.96 19.93 3.53L19.93 3.53L19.93 3.53Q19.97 3.59 21.18 6.62L21.18 6.62L21.70 6.62L21.70 1.96L23.44 1.96L23.44 7.51L23.64 7.51L23.64 9.67L22.93 9.67L22.93 10.08L23.64 10.08L23.64 11.37L21.02 11.37L21.02 9.73L20.56 9.73L20.56 9.73Q19.61 7.44 19.28 6.56L19.28 6.56L19.28 4.92L19.04 4.92L19.04 9.93L18.64 9.93L18.64 11.66L17.01 11.66L17.01 7.94L17.30 7.94L17.30 7.92L17.30 7.92Q17.29 3.09 17.29 1.96ZM21.15 6.62L20.23 6.62L20.23 6.98L21.31 6.98L21.31 6.98Q21.18 6.62 21.15 6.62L21.15 6.62ZM22.50 6.62L21.71 6.62L21.71 6.98L21.33 6.98L21.33 6.98Q21.68 7.85 21.75 8.11L21.75 8.11L21.76 8.11L21.76 8.07L21.76 8.07Q21.71 7.18 21.71 6.98L21.71 6.98L22.50 6.98L22.50 6.62ZM21.02 11.73L21.02 11.55L24.19 11.55L24.19 11.73L21.02 11.73ZM24.33 10.60L24.33 2.00L26.24 2.00L26.24 3.83L26.24 3.83Q26.24 4.74 26.21 5.80L26.21 5.80L26.21 5.82L26.23 5.82L26.23 5.82Q26.46 5.37 27.52 3.51L27.52 3.51L27.52 3.51Q28.06 2.57 28.06 2.09L28.06 2.09L28.06 2.00L30.02 2.00L30.02 2.04L30.02 2.04Q30.02 2.98 29.26 4.09L29.26 4.09L28.10 5.78L29.24 8.21L30.27 8.21L30.27 8.50L29.11 8.50L29.11 8.52L29.11 8.52Q29.39 9.13 29.47 9.24L29.47 9.24L29.68 9.24L29.68 10.12L29.98 10.12L29.98 11.72L29.98 11.72Q29.48 11.73 29.24 11.73L29.24 11.73L28.77 11.73L28.77 11.73Q28.51 11.73 28.08 11.72L28.08 11.72L28.08 10.65L27.65 10.65L27.65 9.24L27.41 9.24L27.15 8.50L29.09 8.50L29.09 8.21L27.31 8.21L27.31 8.21Q27.31 8.18 27.00 7.23L27.00 7.23L26.98 7.23L26.98 7.23Q26.82 7.54 26.33 8.21L26.33 8.21L27.15 8.21L27.15 8.50L26.24 8.50L26.24 8.98L26.13 8.98L26.13 11.20L26.24 11.20L26.24 11.70L26.24 11.70Q26.24 11.73 26.21 11.73L26.21 11.73L24.36 11.73L24.36 11.73Q24.33 11.73 24.33 11.70L24.33 11.70L24.33 10.93L25.20 10.93L25.20 10.60L24.33 10.60ZM26.31 8.21L25.12 8.21L25.12 8.50L26.23 8.50L26.23 8.50Q26.23 8.45 26.31 8.21L26.31 8.21Z"></path></g><!----><!----></svg>