<svg data-v-fde0c5aa="" xmlns="http://www.w3.org/2000/svg" viewBox="0 0 300 300" class="iconLeft"><!----><defs data-v-fde0c5aa=""><!----></defs><rect data-v-fde0c5aa="" fill="transparent" x="0" y="0" width="300px" height="300px" class="logo-background-square"></rect><defs data-v-fde0c5aa=""><!----></defs><g data-v-fde0c5aa="" id="73f248a7-249e-407b-a676-6bc13c14cde6" fill="#000000" transform="matrix(3.340391159057617,0,0,3.340391159057617,105.94116026888749,117.28086677257298)"><path d="M0.84 3.79L5.42 8.37L10.00 3.79L10.00 15.54C10.00 15.69 9.88 15.82 9.73 15.82L8.12 15.82C7.97 15.82 7.84 15.69 7.84 15.54L7.84 8.99L5.42 11.41L3.00 8.99L3.00 15.54C3.00 15.69 2.88 15.82 2.73 15.82L1.11 15.82C0.97 15.82 0.84 15.69 0.84 15.54ZM18.38 15.54C18.38 15.69 18.23 15.81 18.03 15.81L12.10 15.81C11.94 15.81 11.82 15.69 11.82 15.54L11.82 4.12C11.82 3.93 11.94 3.78 12.10 3.78L13.73 3.78C13.89 3.78 14 3.93 14 4.12L14 13.62L18.03 13.62C18.23 13.62 18.38 13.75 18.38 13.90ZM24.16 5.95L24.16 13.61L26.00 13.61C26.19 13.61 26.35 13.73 26.35 13.89L26.35 15.53C26.35 15.68 26.19 15.81 26.00 15.81L20.06 15.81C19.91 15.81 19.78 15.68 19.78 15.53L19.78 13.89C19.78 13.73 19.91 13.61 20.06 13.61L21.97 13.61L21.97 5.95L20.06 5.95C19.91 5.95 19.78 5.84 19.78 5.68L19.78 4.05C19.78 3.89 19.91 3.77 20.06 3.77L26.00 3.77C26.19 3.77 26.35 3.89 26.35 4.05L26.35 5.68C26.35 5.84 26.19 5.95 26.00 5.95ZM36.23 15.89L30.21 9.32L30.21 15.53C30.21 15.68 30.10 15.81 29.95 15.81L28.31 15.81C28.15 15.81 28.03 15.68 28.03 15.53L28.03 3.70L34.05 10.26L34.05 4.06C34.05 3.91 34.17 3.78 34.31 3.78L35.97 3.78C36.11 3.78 36.23 3.91 36.23 4.06ZM46.12 15.53C46.12 15.68 46.00 15.81 45.85 15.81L43.85 15.81C43.76 15.81 43.69 15.78 43.64 15.71L43.62 15.68L40.24 10.92L40.24 15.53C40.24 15.68 40.12 15.81 39.97 15.81L38.33 15.81C38.18 15.81 38.05 15.68 38.05 15.53L38.05 8.69L39.34 8.69L38.08 4.20L38.05 4.09L38.05 4.06C38.05 3.91 38.18 3.78 38.33 3.78L40.04 3.78C40.15 3.78 40.26 3.86 40.29 3.98L41.40 7.92L43.61 3.93C43.67 3.84 43.75 3.78 43.86 3.78L45.72 3.78C45.88 3.78 46.00 3.91 46.00 4.06C46.00 4.10 45.99 4.14 45.98 4.19L45.95 4.23L42.53 10.37L46.05 15.33L46.09 15.37C46.10 15.41 46.12 15.47 46.12 15.53Z"></path></g><defs data-v-fde0c5aa=""><linearGradient data-v-fde0c5aa="" gradientTransform="rotate(25)" id="3ce3ba91-53f0-4a2b-a0d9-a660ea4eaabb" x1="0%" y1="0%" x2="100%" y2="0%"><stop data-v-fde0c5aa="" offset="0%" stop-color="#006678" stop-opacity="1"></stop><stop data-v-fde0c5aa="" offset="100%" stop-color="#4FA8FF" stop-opacity="1"></stop></linearGradient></defs><g data-v-fde0c5aa="" id="bc1cf30d-70aa-4dec-81e0-9bbf570628f7" stroke="none" fill="url(#3ce3ba91-53f0-4a2b-a0d9-a660ea4eaabb)" transform="matrix(0.6884336471557617,0,0,0.6884336471557617,34.95839504706464,115.3439193077829)"><path d="M43.2 18.2c-2.5-4.1-4.8-7.6-4.8-7.6-.3-1.1-1.8-1-2.1 0l-5.1 21.1c3.3-4.9 7.4-9.5 12-13.5z"></path><path d="M77.2 81.5l-1.5-21L68.2 83c-5.8 2.6-10.8.6-15.3-3.4-4.8-4.3-4.8-10-2-14.5.6-.9 1.3-1.9 2-2.8.6.4 1.1.7 1.6 1.1 4.7 3.4 8.2 9.9 8.2 9.9.9.6 1.6-.2 2-1.4 0 0 2.3-10.2-.7-20.1-.2-.8-.5-1.5-.7-2.2 7.8-13 11.8-25.5 14.3-41 .2-1.5-1-2.8-2.5-2.6-18 1.4-34.1 14.3-43.5 29.2-1.9.5-4 1.1-6.1 1.9C15.8 40.6 8.1 45 8.1 45c-1.1.4-1 1.9.1 2.1 0 0 15.5 3.2 16.4 3.5-.6 2.1-1 4.1-1.2 6.1-2.4 19.4 7.4 34.5 26.4 37.6 8.9 1.5 16.6-1.3 21.2-6.8l17.3 4.6-11.1-10.6zm-31.3-49c.1-1.2 0-2.4 0-2.9 0-.3-.2-.5-.4-.2-.7.9-1.5 2.4-3.4 3.9-1.2.3-2.5.8-3.7 1.4-.7.3-.9-.7-.2-1.3 1.2-1.1 2.5-2.2 3.7-3.3.1.6.3 1.1.4 1.4.1.2.2.3.4 0 .5-.9.9-2.3 2.6-4.2.4-.3.7-.6 1.1-.8l.5 2c.1.2.2.3.4 0 .5-1 .9-2.6 3.2-4.8 0 0 .7 2.9 1 3.5.1.3.3.4.5 0 .7-1.3 1.2-3.3 4.1-6.1-.5 1.8-.4 4.5-.3 5.5 0 .3.2.5.4.2.9-1.2 4.9-5.3 5.4-5-.5 3.7-1.7 5.5-2.4 6.8-.2.3 0 .4.3.3.8-.3 2.6-1 4-1.9v.1c-1.2 3-2.6 4.5-3.5 5.6-.2.3-.1.4.2.4.6 0 1.8-.2 2.9-.5-1 2.7-2.2 3.7-2.9 4.6-.2.2-.1.3.2.3.4 0 1.2-.1 2-.3 0 .2-1.9 3-2.4 3.7-.2.2-.1.3.2.3.3 0 .8-.1 1.3-.2-.5 2-1.1 4-1.8 6-.3.9-1.3 1.2-1.3.4 0-2.1-.2-4-.6-5.8.5-1 1-1.7 1.4-2.4.2-.3 0-.4-.3-.3-.4.1-1 .4-1.7.7.6-2 1.5-3.1 2-4 .2-.3 0-.4-.3-.3-.7.2-2.1.8-3.4 1.5.6-2.1 1.6-3.2 2.1-4.2.2-.3 0-.4-.3-.3-.2.1-.6.2-1 .4H56c-.7.2-2.1.8-3.4 1.5.3-1.7.3-3.9.2-4.8 0-.3-.2-.5-.4-.2-.7.9-1.4 2.2-3 3.6.2-1.5.1-3.2 0-3.9 0-.3-.2-.5-.4-.2-.9 1.1-1.5 2.3-3.1 3.8z"></path></g><!----></svg>